<svg id="Слой_1" data-name="Слой 1" xmlns="http://www.w3.org/2000/svg" viewBox="0 0 150 190"><defs><style>.cls-1{fill-rule:evenodd;}</style></defs><title>Монтажная область 23</title><path class="cls-1" d="M73.11,133.47c-11.26,0-20.39-2.68-27.49-7.09l2.4-5.27a36,36,0,0,0,3.17,1.83l2.17-4.4c-26.75-14.43-18.78-60,15.9-60a34.45,34.45,0,0,1,12.61,2.25l2.2-4.46a36.69,36.69,0,0,0-5.78-1.74l2.81-6.18C125.55,59.61,123,133.47,73.11,133.47ZM51.65,110a44.24,44.24,0,0,1,3.44-22.53L44.71,82.34C41.73,91.86,43.84,103,51.65,110ZM69.3,64.54c-10.13,0-17.46,4.79-21.68,11.46l10.44,5.62A46.57,46.57,0,0,1,74.57,65,30.52,30.52,0,0,0,69.3,64.54ZM58.48,114.47c7-2.68,13.08-9,17.32-16.69L60.61,90.23C57.11,98.17,55.85,107,58.48,114.47ZM81.76,68.58c-6.78,2.1-13.49,8.27-18.2,16l14.78,8C81.7,84.53,83.11,75.78,81.76,68.58Zm-.15,32.09a46.34,46.34,0,0,1-15,15.85,38.76,38.76,0,0,0,5,.32c9.68,0,16.41-4.6,20.2-11.07ZM94,101c3.25-9.64,1.23-21.5-6.06-29a47.87,47.87,0,0,1-3.83,23.69Zm-3.8-41.52L87.89,64c22.43,15.54,17.24,58.89-15.71,58.89a42.42,42.42,0,0,1-13.69-2.1l-2.24,4.34a49.71,49.71,0,0,0,16.36,2.57C111.31,127.67,117.12,76.93,90.23,59.47ZM59.89,140.89h8l.29-3.38,9-.2v3.58h7.8c5.43,0,5.47,6.65,5.47,6.65H54.61S53.84,140.89,59.89,140.89Z"/></svg>