<svg id="Слой_1" data-name="Слой 1" xmlns="http://www.w3.org/2000/svg" viewBox="0 0 150 190"><defs><style>.cls-1{fill-rule:evenodd;}</style></defs><title>Монтажная область 9</title><path class="cls-1" d="M103.23,79.08C101.91,84.71,98.57,109,98.57,109s.22,18.83,0,30.88c-.09,5.14-1.73,7.89-7,7.89-8.84,0-23.46.78-32,.78-5.41,0-7-4.53-7-10.25,0-3,.43-75,.43-75l38.55-.79a85.25,85.25,0,0,1,8.52,7.89C102.32,72.78,104.55,73.42,103.23,79.08ZM77.74,138.14c14.17,0,14.08-21.49.24-21.49C62.83,116.65,63.51,138.14,77.74,138.14Zm6.69-52.52-7-.52L75,100.59h6.5ZM89.3,68.31l-30.3,1-.2,38.44,1.36.15,2.72-30.94,34.62-.63ZM77.8,121.88c7.1,0,7.14,11-.13,11S70,121.88,77.8,121.88Z"/></svg>