<svg id="Слой_1" data-name="Слой 1" xmlns="http://www.w3.org/2000/svg" viewBox="0 0 150 190"><defs><style>.cls-1{fill-rule:evenodd;}</style></defs><title>Монтажная область 8</title><path class="cls-1" d="M91.6,148.52l-38.55-.79s-.44-72-.43-75c0-5.72,1.57-10.26,7-10.26,8.55,0,23.17.79,32,.79,5.24,0,6.88,2.75,7,7.89.22,12,0,33.14,0,33.14s3.34,22,4.66,27.62-.91,6.3-3.11,8.68A85.25,85.25,0,0,1,91.6,148.52Zm0-42.61.77-35.29-32.56-.79L60,107.49l3.87,26,32.35.79Zm-14.29,4c13.83,0,16.26,19.62,2.75,19.62C65.27,129.5,63.42,109.88,77.31,109.88ZM79.15,124c5.88,0,4.82-8.54-1.2-8.54S72.71,124,79.15,124Zm-6.52-29.9-.26-17,7.77.17L79.9,94.29Z"/></svg>