<svg id="Слой_1" data-name="Слой 1" xmlns="http://www.w3.org/2000/svg" viewBox="0 0 150 190"><defs><style>.cls-1{fill-rule:evenodd;}</style></defs><title>Монтажная область 67</title><path class="cls-1" d="M120.44,129.56v8.58l-8.06,7.34-17.4.25-2.46-6L88.12,136l1.32-14.42,5.58-.06,6.79-7.82,15.44,5-.26,8.39Zm-16.87-10.08-4.27,4,3.11,2,6.93-4Zm11.16,12-8.07-3.93L102.44,130l-6-2.55L93,135.19l11.5-.18,1.91,4.79,3.57.87,2.27-4.37,3.75-.67ZM103.81,80.51l-57.46,0c-5.1,0-5.29-6.45.24-6.45s51.2-.67,57-.67S109.84,80.51,103.81,80.51ZM67.45,94.44l5.68-8.92,6.37,0,6.26,9,5.73-9L104,85.37l-1.88,22.89L94,116.37l-4.14,1-4.34-6.68-5.53,8.89,5,7.12-.89,9.49,5.73,10.5c-12.27,2.89-30.32,1.48-37.35-3.3l-1.51-17.56,4.13-6.51-5.45-8.84L47.48,85.63l13.61-.06Zm26.25,17,5.38-9.18L93.5,93.52l-5.83,9.36ZM82,102.89l-5.7-9.24-5.82,9.45,6,8.45ZM71.69,138.72a80,80,0,0,0,9.29,0l.6-.94-5.15-8.34L71.17,138ZM73,119.42l-5.42-8.64-5.53,8.49,5.72,8.52ZM64.41,138l1.31-2.07-5.15-8.34-5,8.16A38.58,38.58,0,0,0,64.41,138ZM52.66,102.66l5.79,8.76,5.5-8.66-5.7-9.24Z"/></svg>